<svg version="1.1" id="Layer_1" xmlns="http://www.w3.org/2000/svg" xmlns:xlink="http://www.w3.org/1999/xlink" x="0px" y="0px" width="100%" viewBox="0 0 2000 1677" enable-background="new 0 0 2000 1677" xml:space="preserve">

<path fill="#F4F4F4" opacity="1.000000" stroke="none" d="
M562.937195,1039.152100 
	C538.942017,1039.102417 514.946899,1039.028442 490.951721,1039.009399 
	C459.620972,1038.984497 428.289886,1039.085083 396.959747,1038.947266 
	C388.707001,1038.911011 380.669189,1037.376831 373.273041,1033.331177 
	C362.235168,1027.293701 354.963409,1018.268433 351.394470,1005.750122 
	C336.894989,1015.873230 321.106873,1022.896057 304.509827,1028.212158 
	C287.680084,1033.602661 270.669495,1038.411743 253.016953,1039.899780 
	C238.536179,1041.120483 223.915039,1042.469360 209.455399,1041.754150 
	C183.574417,1040.473999 158.380402,1035.091431 134.268173,1025.111938 
	C116.592918,1017.796448 100.073814,1008.479919 85.214333,996.537109 
	C69.282921,983.732727 56.117752,968.300476 45.403076,950.851440 
	C34.893948,933.737183 27.373482,915.312500 23.485529,895.675293 
	C21.072742,883.488831 19.699459,870.980957 19.196228,858.563232 
	C18.653326,845.166443 18.735945,831.604980 20.184566,818.293701 
	C24.111492,782.209534 34.941944,748.410522 56.080189,718.399780 
	C74.817268,691.798035 98.906258,671.762939 128.334656,657.766357 
	C147.270569,648.760132 167.116501,642.828369 187.675735,640.311829 
	C205.029312,638.187683 222.769867,637.384460 240.217056,638.306580 
	C264.999207,639.616272 289.644775,643.236694 313.153107,651.987915 
	C324.955750,656.381531 336.778931,660.852478 345.765137,670.290833 
	C347.439545,672.049500 348.927185,673.986023 350.765503,676.152100 
	C351.876282,673.349121 352.761658,670.951355 353.766663,668.604736 
	C361.720551,650.033081 376.320251,641.250122 396.017090,641.078918 
	C430.345184,640.780396 464.677643,640.981812 499.933716,641.017395 
	C513.920654,641.015808 526.982117,640.970642 540.508301,640.955933 
	C557.612305,641.308289 574.251648,641.630188 591.126709,642.237610 
	C596.314331,644.696045 601.253296,646.899475 606.229309,649.015869 
	C607.201111,649.429138 608.519287,649.994507 609.333984,649.657959 
	C615.929138,646.932678 622.442200,644.008911 629.445740,641.076904 
	C654.587158,640.957520 679.263123,640.906921 704.404419,640.951904 
	C716.595703,640.996826 728.321777,640.946167 740.512451,640.938599 
	C766.107788,640.987305 791.238770,640.913391 816.368713,641.043823 
	C824.621643,641.086670 832.923889,641.190369 841.110718,642.100952 
	C852.889099,643.410828 862.582947,648.942627 869.352966,658.866394 
	C872.211182,663.056091 874.537720,667.608582 877.127991,672.033875 
	C892.482666,659.405090 909.757324,650.561279 929.110168,645.955811 
	C938.066040,643.824524 947.104614,642.040649 956.566895,640.061646 
	C972.468994,640.358154 987.946899,640.140930 1003.340942,641.174011 
	C1020.445557,642.321777 1037.384521,645.393738 1053.053955,652.661072 
	C1060.719971,656.216492 1067.565796,661.540344 1075.002686,666.201538 
	C1078.805054,657.936218 1085.874878,651.578674 1094.385620,646.100952 
	C1100.613037,644.277100 1106.504761,641.235291 1112.402954,641.223022 
	C1154.629150,641.135071 1196.859009,641.493164 1239.081543,642.125427 
	C1248.708618,642.269592 1258.433594,643.393677 1267.900879,645.188538 
	C1290.257812,649.427246 1311.803467,656.116943 1331.610718,667.824707 
	C1346.828857,676.820007 1360.396484,687.610535 1370.698853,702.037048 
	C1376.530273,710.202820 1381.602417,718.910828 1386.366455,726.358276 
	C1395.713501,715.129333 1405.599243,703.253113 1415.790283,691.252319 
	C1426.985107,682.697693 1437.870972,674.262817 1448.767700,665.841980 
	C1450.822876,664.253723 1452.921631,662.721741 1455.359375,661.086548 
	C1477.851440,648.451172 1501.544922,640.926636 1527.411987,638.991638 
	C1538.743042,639.057068 1549.639526,638.588684 1560.473389,639.210510 
	C1568.296509,639.659485 1576.036377,641.557983 1583.391602,642.887634 
	C1557.098633,644.252563 1535.704468,654.376648 1519.613647,675.013855 
	C1518.921631,675.901306 1517.943115,676.565430 1516.706055,677.269287 
	C1506.657593,680.184509 1496.606079,682.264038 1487.413330,686.299805 
	C1448.170898,703.527649 1421.550415,733.231750 1405.007568,772.292297 
	C1394.613281,796.834778 1389.962646,822.475647 1391.567139,849.467896 
	C1380.910522,862.217529 1370.465698,874.673279 1359.972656,886.780640 
	C1359.470703,885.406006 1359.016602,884.379761 1358.397583,882.980530 
	C1324.108154,916.706238 1281.189453,928.258850 1234.616943,930.756836 
	C1223.754395,930.457520 1213.168335,930.457520 1202.102173,930.457520 
	C1202.102173,939.881470 1202.102173,948.972473 1202.060303,958.526367 
	C1201.680298,973.240662 1201.964966,987.542664 1200.811279,1001.727600 
	C1199.850464,1013.543213 1193.339478,1022.894409 1183.868896,1030.037476 
	C1175.123291,1036.633667 1164.914551,1038.893677 1154.316528,1038.905762 
	C1137.885132,1038.924438 1121.452759,1038.305298 1104.822876,1037.653076 
	C1093.524536,1034.004883 1083.995483,1028.438843 1077.601685,1018.373352 
	C1076.205688,1016.175720 1074.633789,1014.089661 1073.081299,1011.557373 
	C1071.750122,1006.015503 1070.480591,1000.868469 1068.717285,993.719910 
	C1067.761230,995.589478 1067.383057,996.979370 1066.518066,997.922791 
	C1054.883423,1010.610352 1041.020264,1020.152405 1025.235840,1026.960083 
	C1003.990662,1036.122803 981.668457,1041.038940 958.686035,1041.781616 
	C943.361755,1042.276733 927.958740,1040.857544 912.610840,1039.956909 
	C896.384705,1039.004517 880.533569,1035.711548 865.376221,1029.904053 
	C847.875488,1023.198669 835.622131,1008.486694 836.244080,989.076355 
	C836.826050,970.914551 841.645813,953.187012 848.755615,936.536255 
	C858.517456,913.674622 876.120117,907.733765 897.131653,910.316040 
	C908.388123,911.699463 919.295166,915.754700 930.528137,917.553833 
	C939.789429,919.037109 949.275269,918.537598 958.295288,915.220642 
	C959.669678,914.715210 961.739197,913.484558 961.804199,912.480469 
	C962.105896,907.815918 963.450745,902.378113 958.629639,899.261169 
	C949.006714,893.039856 939.225830,887.026855 929.231384,881.425293 
	C917.540649,874.873169 905.348022,869.205627 893.749329,862.503296 
	C881.376465,855.353516 870.591858,846.189941 861.682739,834.830505 
	C847.687256,816.985718 839.846863,796.945984 838.984375,774.232971 
	C838.874634,771.344604 837.684631,769.886353 834.419006,769.938721 
	C823.756653,770.109619 813.089722,769.990112 802.424744,770.022156 
	C801.331482,770.025452 800.239014,770.296875 799.001343,770.463440 
	C799.001343,772.759827 799.001343,774.751221 799.001343,776.742676 
	C799.001465,844.232910 799.040710,911.723267 798.951294,979.213379 
	C798.940369,987.459595 798.239807,995.704895 797.579834,1004.172974 
	C794.866028,1012.573120 791.543701,1020.467529 784.770447,1025.848633 
	C779.312500,1030.184692 772.922546,1033.347900 766.527893,1037.020996 
	C760.760986,1037.674683 755.424500,1038.758301 750.061096,1038.913696 
	C739.571289,1039.217529 729.066040,1038.939575 718.568054,1039.021606 
	C709.099060,1039.095703 699.860962,1038.070557 691.008911,1033.691162 
	C688.284973,1031.551514 685.582825,1029.882446 683.172852,1027.864502 
	C671.128784,1017.780029 667.169495,1004.363647 667.159424,989.200684 
	C667.135620,953.133240 666.952515,917.065979 666.902954,880.533936 
	C666.972168,843.482605 666.972168,806.895996 666.972168,770.166626 
	C660.571899,770.166626 654.785645,770.166626 648.609009,770.019653 
	C645.426453,769.696960 642.628357,769.305603 639.843506,769.384705 
	C630.177917,769.658936 621.022095,767.966858 612.604126,762.979980 
	C611.817383,762.513916 610.832153,762.382690 609.622864,761.952942 
	C608.341064,761.895325 607.298462,761.773804 606.422180,762.099548 
	C600.367615,764.349976 594.516418,767.777039 588.276489,768.748535 
	C579.351685,770.138062 570.150818,769.753906 560.675415,769.971802 
	C548.592712,769.610718 536.902771,769.374023 525.211548,769.239807 
	C523.811035,769.223816 522.404053,769.765808 520.531860,770.029419 
	C507.488281,770.009705 494.912903,770.009705 482.342041,770.009705 
	C482.342041,772.624207 482.342041,774.670898 482.342041,776.950562 
	C495.784363,776.950562 508.890289,776.950562 522.300781,777.234497 
	C535.166260,777.618896 547.727112,777.731018 560.288208,777.782593 
	C560.858887,777.784912 561.431763,777.241211 562.437927,776.970947 
	C565.645935,777.326172 568.437195,777.557129 571.190308,778.016907 
	C582.582336,779.919373 591.892517,785.174805 599.193054,794.366760 
	C606.696472,803.814148 608.611511,814.854309 608.869507,826.221619 
	C609.132385,837.805664 608.225647,849.411987 608.030334,861.011902 
	C607.795044,874.986938 595.958923,892.694824 580.668335,897.268433 
	C573.778931,898.393982 567.284546,900.299011 560.755066,900.428101 
	C536.310120,900.911377 511.853668,900.814453 487.401550,900.933105 
	C485.649475,900.941650 483.897308,900.934204 482.337341,900.934204 
	C482.337341,904.421997 482.337341,907.148499 482.337341,910.066895 
	C492.215088,910.066895 501.691040,910.091675 511.166840,910.062073 
	C535.125427,909.987183 559.083862,909.887878 583.492432,909.881470 
	C597.889587,909.293945 609.802307,914.166992 619.401306,924.036072 
	C628.586182,933.479431 631.595581,945.606934 631.932678,958.367126 
	C632.253723,970.523010 632.478638,982.720398 631.807312,994.847656 
	C631.454407,1001.223999 629.948364,1007.852417 627.454163,1013.726257 
	C622.817322,1024.645874 613.897888,1031.597900 602.653870,1036.064087 
	C591.231628,1036.722778 580.215637,1037.417603 569.205566,1038.196289 
	C567.104126,1038.344971 565.026062,1038.824951 562.937195,1039.152100 
M177.807709,940.803833 
	C147.707123,929.052063 127.948647,907.870728 119.479721,876.532166 
	C115.304443,861.081909 114.682060,845.290344 116.045387,829.439453 
	C119.139519,793.465027 134.563232,764.848633 166.648911,746.628479 
	C186.465744,735.375244 208.213684,731.962524 230.661118,732.228333 
	C253.032455,732.493225 274.536499,737.162964 295.326111,745.406555 
	C303.831604,748.779236 306.893219,747.424927 309.652710,738.925720 
	C313.449432,727.231873 316.723328,715.369263 320.391632,703.632263 
	C321.905487,698.788452 320.329895,695.403442 316.062103,693.273804 
	C311.459320,690.977051 306.822723,688.607422 301.960663,686.993103 
	C260.961060,673.380615 219.142059,670.056274 176.929413,679.602356 
	C131.403259,689.897888 96.621948,715.480103 75.471428,757.453491 
	C53.729515,800.600342 49.277550,846.491333 60.802986,893.066406 
	C73.344009,943.745483 107.077423,976.247253 155.375656,993.865784 
	C200.064774,1010.167786 245.104507,1008.956726 290.070984,994.377686 
	C304.199280,989.796997 317.993439,984.580811 330.121674,975.708740 
	C333.609283,973.157410 335.455963,970.054199 335.394592,965.607666 
	C334.842621,925.624207 334.413696,885.638977 333.852325,845.655640 
	C333.756592,838.837219 330.758789,836.033203 323.858490,836.022888 
	C291.700073,835.974609 259.541534,835.976440 227.383102,836.020264 
	C220.280502,836.029907 217.456406,838.838013 217.286285,846.062622 
	C217.133362,852.557434 217.233139,859.058655 217.254715,865.556946 
	C217.286728,875.197693 219.772949,877.723022 229.375702,877.741150 
	C245.871445,877.772278 262.367981,877.833252 278.862579,877.690063 
	C282.696228,877.656738 284.125244,878.836548 284.108185,882.833435 
	C284.041321,898.494324 284.192566,914.158081 284.473572,929.816956 
	C284.535980,933.293518 283.546753,935.253418 280.166840,936.557922 
	C246.778412,949.444824 212.979691,952.032837 177.807709,940.803833 
M1267.829468,682.608582 
	C1256.958008,681.095215 1246.104736,678.447571 1235.211670,678.271851 
	C1195.565552,677.631958 1155.906006,677.777771 1116.251587,677.732971 
	C1109.450317,677.725281 1106.942627,680.383057 1106.609741,687.077698 
	C1106.527100,688.739746 1106.585083,690.409363 1106.597778,692.075439 
	C1107.063721,753.388977 1107.848389,814.702393 1107.884155,876.016174 
	C1107.906372,914.164673 1106.767700,952.313354 1106.214233,990.462952 
	C1106.083374,999.477417 1108.772339,1002.103699 1117.703979,1002.118713 
	C1129.701050,1002.138794 1141.698242,1002.137024 1153.695312,1002.119019 
	C1163.037231,1002.105042 1165.177979,1000.014465 1165.259155,990.725037 
	C1165.521484,960.734497 1165.760376,930.743652 1165.995361,900.752808 
	C1166.045776,894.332275 1166.074585,894.252014 1172.345215,894.247192 
	C1190.007568,894.233521 1207.691284,894.775574 1225.325684,894.073364 
	C1239.413818,893.512329 1253.594116,892.308594 1267.463501,889.860901 
	C1292.063843,885.519409 1314.404785,875.513367 1331.910645,857.276855 
	C1355.383301,832.824341 1362.748413,802.741211 1359.405273,769.728088 
	C1356.344238,739.500793 1341.109619,716.722229 1315.399658,700.873718 
	C1300.959961,691.972534 1285.255615,686.188232 1267.829468,682.608582 
M387.979462,842.500000 
	C387.419128,891.656372 386.841095,940.812561 386.313416,989.969299 
	C386.208862,999.710632 388.661133,1002.120361 398.314423,1002.121277 
	C460.143280,1002.127014 521.972168,1002.127380 583.801025,1002.120605 
	C593.407288,1002.119568 595.821594,999.720154 595.722473,989.903076 
	C595.621582,979.906555 595.370605,969.910645 595.088379,959.917175 
	C594.758240,948.228699 592.777100,946.332031 581.143433,946.330383 
	C538.146545,946.324158 495.149323,946.252991 452.153168,946.430115 
	C447.225464,946.450378 445.538727,945.297974 445.618225,940.074707 
	C445.963318,917.414490 445.857605,894.747437 445.918396,872.082825 
	C445.938934,864.434143 445.942444,864.429138 453.542694,864.428650 
	C489.206787,864.426514 524.870850,864.450195 560.534973,864.411560 
	C569.734192,864.401611 572.005981,862.039673 572.029968,852.829834 
	C572.053040,843.997192 572.040527,835.164429 572.033630,826.331726 
	C572.025391,815.800720 570.061646,813.826782 559.516785,813.824463 
	C523.852661,813.816772 488.188599,813.823975 452.524506,813.819031 
	C445.968414,813.818115 445.945007,813.804321 445.923889,807.128113 
	C445.853271,784.796814 445.798950,762.465576 445.742706,740.134277 
	C445.725616,733.340698 445.731964,733.328796 452.705933,733.328125 
	C494.369598,733.323914 536.033264,733.337524 577.696899,733.315613 
	C586.518738,733.310974 589.117065,731.110168 589.490234,722.259277 
	C589.932251,711.775940 589.873901,701.269470 589.930054,690.772522 
	C589.989563,679.659119 587.973999,677.676758 576.897583,677.676025 
	C517.901855,677.672058 458.906097,677.673401 399.910370,677.677795 
	C398.244537,677.677917 396.571747,677.645813 394.914154,677.778198 
	C389.650482,678.198730 387.190247,680.672546 386.808289,686.026367 
	C386.642609,688.348511 386.704193,690.689819 386.723694,693.021851 
	C387.137634,742.514587 387.560272,792.007324 387.979462,842.500000 
M923.948547,1004.712280 
	C950.251038,1007.001404 976.215454,1005.583862 1001.380188,996.924255 
	C1025.348022,988.676453 1044.810913,974.665588 1054.442871,950.426208 
	C1063.049927,928.766052 1063.593872,906.174988 1057.158569,883.784363 
	C1051.451416,863.927185 1038.181030,849.509338 1020.929321,839.000305 
	C1005.326294,829.495605 989.096497,821.017456 973.112305,812.141907 
	C962.935425,806.490967 953.873352,799.494690 947.224731,789.851685 
	C930.997009,766.315369 940.171936,737.925415 966.392029,730.461914 
	C977.044678,727.429626 987.981750,725.846130 998.981506,727.843750 
	C1008.109558,729.501587 1017.124695,731.857544 1026.106201,734.222046 
	C1034.019165,736.305176 1036.944824,735.277954 1039.118774,727.362671 
	C1042.021729,716.793213 1044.509766,706.083557 1046.488770,695.307922 
	C1046.902466,693.055725 1044.767822,689.860107 1042.978027,687.830811 
	C1041.576294,686.241516 1038.964233,685.559082 1036.767578,684.855835 
	C1003.822632,674.309326 970.558167,672.386597 936.975769,681.564087 
	C919.587891,686.315857 904.322327,694.729065 892.373169,708.524902 
	C875.569824,727.925110 873.236755,751.065430 875.528442,775.238892 
	C877.605713,797.150818 888.545959,814.062683 906.153992,826.767639 
	C911.803040,830.843689 917.804993,834.520691 923.960449,837.786804 
	C938.933594,845.731445 954.382812,852.817627 969.089172,861.214722 
	C982.668091,868.968079 993.616516,879.469604 997.489258,895.628540 
	C1003.935608,922.525879 993.493958,942.732422 968.656677,950.500488 
	C956.631348,954.261414 944.182190,956.088257 931.678894,954.266724 
	C918.879333,952.402039 906.216858,949.546875 893.540283,946.905334 
	C885.881714,945.309387 883.137146,946.501770 880.966125,954.101501 
	C878.410217,963.048218 876.154358,972.088135 874.032532,981.149414 
	C871.433594,992.248230 872.425903,993.814392 883.336792,997.393250 
	C885.228027,998.013611 887.131165,998.689270 889.082886,999.018494 
	C900.391907,1000.925964 911.717041,1002.737427 923.948547,1004.712280 
M703.815308,911.500000 
	C703.643677,937.324463 703.463867,963.148865 703.316528,988.973511 
	C703.305176,990.964844 703.408752,992.971985 703.657593,994.946716 
	C704.217590,999.391418 706.860596,1001.968262 711.291138,1002.009338 
	C725.618225,1002.141968 739.948486,1002.173401 754.274841,1002.012207 
	C759.264038,1001.956177 761.775757,999.225281 762.193054,994.174683 
	C762.398254,991.690735 762.320251,989.180969 762.318176,986.682861 
	C762.249451,904.374451 762.171875,822.065979 762.105286,739.757568 
	C762.100281,733.534363 762.308472,733.333313 768.569092,733.329163 
	C788.896362,733.315735 809.223694,733.341614 829.550964,733.315552 
	C838.790588,733.303711 841.514587,730.876343 841.785034,721.597168 
	C842.095581,710.942078 842.029175,700.274475 842.028870,689.612305 
	C842.028625,679.840759 839.809326,677.686523 829.893494,677.681580 
	C799.069336,677.666077 768.245178,677.675781 737.421021,677.675903 
	C704.264221,677.676025 671.107422,677.653015 637.950623,677.692444 
	C629.299683,677.702698 626.837402,680.099915 626.822083,688.586365 
	C626.801941,699.747681 626.842224,710.911926 627.085876,722.069946 
	C627.273315,730.650330 630.109314,733.291260 638.716370,733.309204 
	C658.210510,733.349854 677.704773,733.316650 697.198975,733.327881 
	C703.770813,733.331665 703.905029,733.456421 703.902588,740.051697 
	C703.881531,796.867798 703.848938,853.683899 703.815308,911.500000 
M339.941467,761.291199 
	C338.037811,763.950928 336.346436,766.797546 334.195892,769.239868 
	C320.698181,784.569153 300.383636,786.841614 282.877716,779.874695 
	C268.780792,774.264465 254.310669,770.025574 239.269547,769.253906 
	C227.809723,768.665955 215.975082,769.052734 204.766312,771.297974 
	C185.024765,775.252441 168.717270,785.281738 159.968674,804.468994 
	C149.467728,827.499451 148.736832,851.333923 157.598557,874.793823 
	C165.593948,895.960022 182.840622,906.222778 205.076324,910.112427 
	C204.388901,909.176819 204.188858,908.629822 203.805069,908.421753 
	C187.693115,899.686096 181.057983,885.628906 181.002609,867.877930 
	C180.976105,859.379883 180.916336,850.880737 181.021515,842.383972 
	C181.122818,834.200134 183.398788,826.526428 187.857437,819.723511 
	C197.682571,804.732361 212.529968,799.205322 229.624741,799.066040 
	C260.115845,798.817566 290.610931,798.908142 321.103027,799.083740 
	C326.126770,799.112610 331.249268,799.868347 336.134583,801.068176 
	C341.127106,802.294312 345.883850,804.480469 350.403076,806.122559 
	C350.403076,782.788147 350.403076,759.254944 350.403076,735.721802 
	C350.174469,735.709534 349.945862,735.697266 349.717224,735.684998 
	C346.508484,743.974670 343.299713,752.264404 339.941467,761.291199 
M1067.021484,829.527100 
	C1068.492310,831.173523 1069.963135,832.819946 1071.157715,834.157166 
	C1071.157715,805.613464 1071.157715,776.899597 1071.157715,748.185730 
	C1064.243652,759.964355 1054.743896,767.281189 1041.924927,770.630798 
	C1030.901855,773.511047 1020.512085,771.168762 1010.181824,767.601257 
	C999.326660,763.852539 988.353516,762.539795 975.559875,765.789185 
	C977.981873,768.906799 979.363464,771.911926 981.706848,773.477051 
	C989.415466,778.625671 997.238892,783.698547 1005.440918,787.993286 
	C1027.320312,799.449585 1049.169800,810.858582 1067.021484,829.527100 
z" data-index="0" style="opacity: 1;"></path>
<path fill="#799CAA" opacity="1.000000" stroke="none" d="
M563.016968,1039.542725 
	C565.026062,1038.824951 567.104126,1038.344971 569.205566,1038.196289 
	C580.215637,1037.417603 591.231628,1036.722778 602.642822,1036.467285 
	C605.359192,1051.270386 607.728210,1065.597412 609.984863,1079.942017 
	C612.780273,1097.711426 615.394531,1115.509644 618.248535,1133.269409 
	C621.390625,1152.821411 624.837952,1172.324585 627.928101,1191.884521 
	C631.147217,1212.261230 634.028687,1232.691040 637.189514,1253.077148 
	C639.692749,1269.221191 642.438354,1285.327515 644.997803,1301.463135 
	C647.789917,1319.065796 650.414734,1336.695068 653.252991,1354.290161 
	C656.406738,1373.840332 659.839844,1393.345947 662.929199,1412.906006 
	C666.147888,1433.284546 669.000610,1453.720947 672.201599,1474.102417 
	C674.992249,1491.871094 678.124939,1509.585938 680.961548,1527.347778 
	C684.464905,1549.284546 687.818359,1571.245361 691.313416,1593.688843 
	C695.285950,1590.506958 698.896484,1587.688843 702.426880,1584.773682 
	C714.676819,1574.658813 726.880005,1564.487061 739.136658,1554.380371 
	C751.510132,1544.177246 763.939941,1534.042603 776.318726,1523.845947 
	C786.660278,1515.327148 796.960938,1506.758667 807.284973,1498.218628 
	C817.865662,1489.465698 828.437805,1480.702393 839.040649,1471.976440 
	C852.959229,1460.521851 866.905945,1449.101440 880.837158,1437.662109 
	C893.362488,1427.377319 905.899109,1417.106201 918.401428,1406.793457 
	C930.653442,1396.687500 942.851562,1386.516113 955.104187,1376.410767 
	C967.477112,1366.206177 979.901245,1356.063843 992.277954,1345.864014 
	C1004.535522,1335.762573 1016.764038,1325.626099 1029.001343,1315.500244 
	C1041.237427,1305.375244 1053.446777,1295.217896 1065.708130,1285.123535 
	C1077.961060,1275.036011 1090.292969,1265.044189 1102.536865,1254.945435 
	C1114.916870,1244.734619 1127.199707,1234.405762 1139.583740,1224.199707 
	C1151.833252,1214.104492 1164.190430,1204.140137 1176.436890,1194.041382 
	C1188.816406,1183.832886 1201.071045,1173.472656 1213.465576,1163.282593 
	C1229.305908,1150.259644 1245.284546,1137.404785 1261.106323,1124.359497 
	C1279.100952,1109.522583 1296.934448,1094.490356 1314.937134,1079.663330 
	C1332.809082,1064.943848 1350.852661,1050.432861 1368.731201,1035.721191 
	C1385.581299,1021.855530 1402.314087,1007.847534 1419.447510,993.948364 
	C1426.465698,999.069824 1433.035400,1004.282959 1439.834839,1009.177063 
	C1445.424316,1013.200439 1451.286377,1016.845093 1457.027588,1020.657593 
	C1452.500122,1024.704102 1448.087036,1028.888184 1443.422974,1032.770508 
	C1430.838379,1043.246094 1418.154541,1053.602295 1405.495972,1063.988770 
	C1393.223022,1074.058716 1380.908081,1084.077393 1368.657104,1094.173950 
	C1356.272827,1104.380249 1343.975708,1114.692261 1331.583618,1124.888916 
	C1317.664062,1136.342285 1303.658325,1147.691162 1289.732666,1159.137207 
	C1279.251587,1167.751953 1268.856812,1176.471558 1258.389160,1185.102783 
	C1244.224976,1196.781982 1230.020142,1208.411621 1215.847412,1220.080444 
	C1203.586060,1230.175415 1191.335815,1240.283813 1179.098022,1250.407227 
	C1166.860474,1260.530396 1154.663330,1270.702271 1142.413452,1280.810303 
	C1131.825684,1289.546875 1121.187500,1298.222046 1110.574097,1306.927368 
	C1094.078491,1320.457520 1077.565674,1333.966797 1061.096558,1347.529297 
	C1047.303833,1358.887695 1033.583984,1370.334595 1019.794312,1381.696777 
	C1003.200073,1395.369629 986.536011,1408.957764 969.958069,1422.650269 
	C953.885620,1435.925293 937.932373,1449.344971 921.837341,1462.592529 
	C906.004700,1475.624146 890.011597,1488.460815 874.178162,1501.491455 
	C859.870605,1513.265991 845.716675,1525.227051 831.433350,1537.031128 
	C819.195801,1547.144531 806.851074,1557.128296 794.590088,1567.213745 
	C782.451050,1577.198730 770.367676,1587.251343 758.241028,1597.251343 
	C745.737305,1607.562622 733.199707,1617.832764 720.697449,1628.145752 
	C708.445618,1638.252319 696.228455,1648.401123 683.978577,1658.510010 
	C677.740540,1663.657715 671.463684,1668.758423 664.931030,1674.104004 
	C664.213806,1673.189941 663.271240,1672.533203 663.144104,1671.745117 
	C661.041443,1658.709961 659.036316,1645.658936 657.019348,1632.609985 
	C654.901001,1618.904785 652.801331,1605.196777 650.678650,1591.492188 
	C648.456177,1577.143433 646.253967,1562.791382 643.973938,1548.451782 
	C641.200745,1531.010010 638.322021,1513.585083 635.551575,1496.142944 
	C632.988647,1480.007568 630.538635,1463.854248 627.981384,1447.717896 
	C626.198975,1436.470947 624.268799,1425.247192 622.494934,1413.998901 
	C619.949585,1397.857788 617.500793,1381.701660 614.983398,1365.556152 
	C613.279358,1354.627319 611.535217,1343.704590 609.796631,1332.781128 
	C607.203003,1316.484375 604.618469,1300.186035 601.993164,1283.894287 
	C599.131348,1266.135620 596.180054,1248.391357 593.356079,1230.626709 
	C590.842651,1214.815186 588.504639,1198.975952 585.989563,1183.164795 
	C583.138000,1165.238281 580.122559,1147.337769 577.276306,1129.410522 
	C574.454895,1111.640259 571.792175,1093.845093 568.989380,1076.072021 
	C567.088135,1064.015869 565.065247,1051.979004 563.016968,1039.542725 
z" data-index="1" style="opacity: 1;"></path>
<path fill="#A97CD1" opacity="1.000000" stroke="none" d="
M1583.813354,642.809937 
	C1576.036377,641.557983 1568.296509,639.659485 1560.473389,639.210510 
	C1549.639526,638.588684 1538.743042,639.057068 1527.564941,638.693848 
	C1532.986084,633.570374 1538.699341,628.791748 1544.448853,624.057068 
	C1557.101685,613.637451 1569.789429,603.260132 1582.428345,592.823853 
	C1587.592163,588.560059 1592.666748,584.188232 1598.159668,579.546326 
	C1289.393555,457.968140 981.424438,336.703796 672.849304,215.200821 
	C675.088074,229.898560 677.125793,243.741302 679.320190,257.559174 
	C681.801758,273.185059 684.460815,288.782654 686.975891,304.403290 
	C690.067322,323.603729 693.089783,342.815308 696.057678,362.456726 
	C697.304871,372.065948 698.511292,381.260956 700.008850,390.408356 
	C701.146729,397.358612 702.654846,404.248230 703.999023,411.583618 
	C704.332458,414.280304 704.635437,416.562988 705.002502,418.835327 
	C707.259583,432.808044 709.602783,446.767334 711.776062,460.753021 
	C713.648438,472.802124 715.332642,484.880402 717.068298,497.368652 
	C718.749817,509.157013 720.331360,520.544617 722.231262,531.878784 
	C723.197937,537.645996 724.737183,543.317139 726.011230,549.459473 
	C726.334290,552.161011 726.647583,554.437195 726.995605,556.708069 
	C729.159729,570.827820 731.316345,584.948792 733.505188,599.064697 
	C735.667725,613.011169 737.865417,626.952148 740.047791,640.895569 
	C728.321777,640.946167 716.595703,640.996826 704.424561,640.526428 
	C702.653809,631.054810 701.382690,622.095825 699.989868,613.155701 
	C697.835571,599.329285 695.534973,585.525452 693.414612,571.693909 
	C691.493103,559.159302 689.729736,546.600403 687.913086,533.639282 
	C686.618958,525.122498 685.391052,517.004211 683.975647,508.918701 
	C682.400269,499.919617 680.654297,490.950409 678.988037,481.547913 
	C678.664612,479.187622 678.315796,477.250763 678.010010,475.307129 
	C675.766846,461.045502 673.495789,446.788116 671.305969,432.518250 
	C669.438416,420.347992 667.667297,408.162903 665.898010,395.567963 
	C664.930969,388.480865 664.014771,381.793945 662.884766,375.143341 
	C661.289246,365.752319 659.535706,356.388123 657.849670,347.012482 
	C654.889465,327.969238 651.999756,308.914673 648.948486,289.886078 
	C646.130920,272.315765 643.058899,254.786224 640.249390,237.214676 
	C637.725830,221.431335 635.443054,205.609619 632.983704,189.815781 
	C631.513306,180.373062 629.876038,170.956375 628.389709,161.516022 
	C628.086914,159.592850 628.123474,157.616257 627.929138,154.450867 
	C977.680115,292.163086 1326.612427,429.553009 1676.301025,567.240723 
	C1670.991211,571.723328 1666.377808,575.686462 1661.691650,579.561523 
	C1646.893677,591.797668 1632.051392,603.980286 1617.259521,616.223877 
	C1606.828857,624.857605 1596.452148,633.556763 1585.640869,642.625854 
	C1584.757935,642.953369 1584.285645,642.881653 1583.813354,642.809937 
z" data-index="2" style="opacity: 1;"></path>
<path fill="#F4F4F4" opacity="1.000000" stroke="none" d="
M1648.620728,671.181335 
	C1652.426758,673.635559 1656.733032,675.565918 1659.949341,678.637573 
	C1671.883179,690.034607 1683.457886,701.807617 1694.997803,713.270935 
	C1694.997803,707.081299 1694.738770,699.724976 1695.074219,692.395813 
	C1695.380615,685.703674 1695.319580,678.741272 1697.191895,672.422913 
	C1702.294922,655.201660 1714.162964,644.921814 1732.034546,642.038452 
	C1736.239990,641.359985 1740.549438,641.044739 1744.811401,641.040710 
	C1809.303833,640.979492 1873.796265,640.924805 1938.288452,641.038452 
	C1960.191406,641.077087 1979.483643,656.285461 1981.812622,677.682800 
	C1983.332397,691.644775 1983.215820,705.859375 1982.789917,719.929260 
	C1982.556152,727.654480 1981.298950,735.758484 1978.505493,742.911499 
	C1972.654419,757.894043 1961.069092,767.346375 1944.947266,768.766479 
	C1931.306152,769.968018 1917.475220,769.014160 1903.370117,769.014160 
	C1903.194580,771.628052 1903.015015,773.056396 1903.014771,774.484741 
	C1903.000610,841.976746 1902.810425,909.469971 1903.218506,976.959534 
	C1903.276489,986.535889 1903.997681,996.062134 1901.927002,1005.438416 
	C1898.043091,1023.025085 1882.341309,1036.905273 1864.446777,1037.890259 
	C1848.384033,1038.774658 1832.229370,1039.511353 1816.182861,1038.796143 
	C1794.537964,1037.831055 1778.347778,1027.072754 1772.294556,1003.504578 
	C1771.325317,999.730774 1771.084961,995.690552 1771.053589,991.769104 
	C1770.921387,975.272095 1770.920654,958.773010 1771.009277,942.275452 
	C1771.306885,886.824158 1771.663696,831.373230 1771.995972,775.922119 
	C1772.006836,774.122925 1771.997559,772.323608 1771.997559,770.346863 
	C1755.579956,768.828979 1739.233276,772.382690 1723.111206,766.829712 
	C1725.626465,775.501648 1728.449463,783.467590 1730.182373,791.664124 
	C1732.272217,801.548279 1733.822632,811.587402 1734.884888,821.635681 
	C1735.788574,830.184387 1736.140625,838.853699 1735.913940,847.447937 
	C1735.216309,873.897583 1729.593994,899.278076 1719.144287,923.675232 
	C1707.567993,950.702148 1690.979980,974.126465 1669.417969,993.931458 
	C1656.099121,1006.165161 1641.308472,1016.486206 1624.091797,1023.762817 
	C1624.996094,1009.052002 1626.528198,994.572510 1628.343628,979.911255 
	C1632.181763,976.982422 1635.825928,974.343079 1639.277588,971.472107 
	C1694.209106,925.781799 1714.088013,848.011536 1688.258545,779.586792 
	C1683.207764,766.206665 1677.208496,753.273071 1668.127930,741.509338 
	C1668.050049,739.425964 1667.941162,737.759399 1668.151367,736.134033 
	C1671.138550,713.035339 1664.733521,692.633423 1650.567871,674.424438 
	C1649.799316,673.436401 1649.264404,672.266541 1648.620728,671.181335 
M1798.500000,677.672852 
	C1779.503540,677.675354 1760.506958,677.627258 1741.510864,677.705994 
	C1734.201416,677.736267 1731.269409,680.409790 1731.235962,687.522156 
	C1731.181763,699.010864 1731.262329,710.512146 1731.756714,721.987854 
	C1732.167847,731.532166 1734.420410,733.313293 1744.184814,733.322021 
	C1763.514160,733.339233 1782.845215,733.465454 1802.171631,733.230896 
	C1807.036865,733.171814 1808.392334,734.787170 1808.379395,739.539917 
	C1808.246338,788.527344 1808.366577,837.515442 1808.310791,886.503235 
	C1808.270752,921.661926 1808.049683,956.820435 1807.960449,991.979187 
	C1807.943115,998.807556 1810.423584,1001.966492 1816.277100,1002.033691 
	C1830.438354,1002.196533 1844.604126,1002.173462 1858.765625,1002.013977 
	C1863.711182,1001.958313 1866.351562,999.194397 1866.867310,994.269165 
	C1867.057251,992.454163 1866.966675,990.607239 1866.965454,988.774902 
	C1866.907959,908.293945 1866.844360,827.813049 1866.786133,747.332092 
	C1866.776001,733.327087 1866.784912,733.327515 1881.046753,733.326965 
	C1899.209717,733.326355 1917.372803,733.380188 1935.535400,733.297180 
	C1943.070557,733.262695 1945.817749,730.655273 1946.067627,723.122620 
	C1946.432007,712.138550 1946.628052,701.145508 1946.679443,690.155273 
	C1946.727783,679.793518 1944.469360,677.679443 1933.972290,677.677307 
	C1889.148193,677.668274 1844.324097,677.673035 1798.500000,677.672852 
z" data-index="3" style="opacity: 1;"></path>
<path fill="#020101" opacity="1.000000" stroke="none" d="
M1628.060181,980.093018 
	C1626.528198,994.572510 1624.996094,1009.052002 1623.720703,1023.793701 
	C1622.311523,1039.361572 1620.681396,1054.671387 1618.958862,1069.970581 
	C1618.430908,1074.659912 1618.230103,1079.513062 1616.769043,1083.923218 
	C1615.874634,1086.622681 1613.276001,1089.707642 1610.710449,1090.672607 
	C1607.185425,1091.998291 1603.463745,1090.921631 1601.021118,1086.911499 
	C1592.159912,1072.362671 1583.047241,1057.967041 1574.001953,1043.530762 
	C1573.479980,1042.697876 1572.715210,1042.017212 1571.746216,1040.669922 
	C1570.429688,1038.758667 1569.541748,1037.338501 1568.414429,1036.143799 
	C1552.846069,1019.644165 1533.598633,1013.968567 1511.569458,1017.545410 
	C1498.464600,1019.673340 1485.555420,1020.080261 1472.694580,1016.404968 
	C1452.769287,1010.710938 1438.005127,998.398132 1426.810425,981.206055 
	C1417.776489,967.332336 1404.939453,958.681335 1388.313965,955.070251 
	C1380.335693,954.877563 1372.558716,953.716980 1365.182983,954.952087 
	C1347.038696,957.990234 1329.078857,962.130249 1310.838623,965.551392 
	C1302.906006,962.730042 1303.633057,954.471619 1307.549194,949.878967 
	C1315.596802,940.441101 1323.364502,930.765137 1331.318115,921.246338 
	C1340.847168,909.841675 1350.449829,898.498657 1360.020752,887.129028 
	C1370.465698,874.673279 1380.910522,862.217529 1391.837646,849.329224 
	C1404.472046,834.388062 1416.645752,819.897705 1428.770752,805.366638 
	C1446.423706,784.210999 1464.080688,763.058472 1481.650024,741.833374 
	C1486.826294,735.579773 1492.847290,729.669617 1496.494507,722.580017 
	C1504.066895,707.860291 1510.309082,692.456238 1517.098145,677.333557 
	C1517.943115,676.565430 1518.921631,675.901306 1519.613647,675.013855 
	C1535.704468,654.376648 1557.098633,644.252563 1583.391602,642.887634 
	C1584.285645,642.881653 1584.757935,642.953369 1585.585571,642.963867 
	C1607.236084,642.744690 1625.309448,651.090698 1641.531494,664.146790 
	C1643.398315,665.649170 1644.657715,667.906189 1646.726562,670.244507 
	C1647.817749,670.850891 1648.381104,671.026123 1648.944580,671.201416 
	C1648.944580,671.201416 1648.790039,671.058289 1648.705322,671.119812 
	C1649.264404,672.266541 1649.799316,673.436401 1650.567871,674.424438 
	C1664.733521,692.633423 1671.138550,713.035339 1668.151367,736.134033 
	C1667.941162,737.759399 1668.050049,739.425964 1667.783203,741.673462 
	C1663.227661,753.394592 1658.844727,764.494751 1654.593262,775.645081 
	C1652.295654,781.670898 1649.120483,787.630615 1648.259766,793.884216 
	C1645.912109,810.940369 1644.683594,828.147583 1642.828247,845.275146 
	C1640.331299,868.325317 1637.612427,891.351379 1635.082275,914.398010 
	C1632.678955,936.289490 1630.395996,958.194153 1628.060181,980.093018 
M1389.482422,878.987671 
	C1371.919800,900.058655 1354.357178,921.129700 1336.794556,942.200745 
	C1341.579102,942.094177 1345.650879,941.313782 1349.671753,940.327087 
	C1365.236572,936.507446 1380.851929,934.928955 1396.552002,939.403931 
	C1415.929443,944.927124 1430.900879,956.333984 1442.086914,973.101318 
	C1457.395752,996.048401 1478.904297,1005.435425 1506.164307,1000.982910 
	C1516.609985,999.276733 1526.989746,998.427856 1537.431519,1000.508911 
	C1560.756226,1005.157410 1578.573608,1017.718628 1591.016357,1037.972534 
	C1594.615112,1043.830566 1598.331299,1049.616455 1602.610596,1056.415649 
	C1604.143677,1042.567993 1605.569458,1030.047974 1606.909302,1017.518921 
	C1610.715210,981.929565 1614.440918,946.331543 1618.283203,910.746155 
	C1622.411255,872.513489 1626.612183,834.288513 1630.869141,796.069946 
	C1631.162354,793.437744 1630.318115,792.243347 1627.947754,791.242249 
	C1588.427124,774.550415 1548.924683,757.814758 1509.480347,740.943726 
	C1506.559448,739.694397 1505.101807,740.338440 1503.237305,742.578796 
	C1465.516602,787.904114 1427.727783,833.172791 1389.482422,878.987671 
M1531.819336,687.361877 
	C1525.964233,699.578064 1520.109131,711.794189 1514.133789,724.261292 
	C1555.339966,741.735168 1595.505737,758.767822 1635.907715,775.900635 
	C1640.231445,765.465393 1644.750244,755.792847 1648.206787,745.754639 
	C1650.286621,739.714478 1651.563965,733.127380 1651.733765,726.746948 
	C1652.474854,698.910034 1633.820557,673.091003 1607.000000,663.987671 
	C1578.659180,654.368408 1550.081787,663.065430 1531.819336,687.361877 
z" data-index="4" style="opacity: 1;"></path>
<path fill="#799CAA" opacity="1.000000" stroke="none" d="
M678.982544,481.968201 
	C680.654297,490.950409 682.400269,499.919617 683.975647,508.918701 
	C685.391052,517.004211 686.618958,525.122498 687.596313,533.469482 
	C660.492798,523.179260 633.722534,512.645935 606.636658,501.949310 
	C597.512878,498.142303 588.739929,494.409760 579.881836,490.891663 
	C575.328796,489.083344 570.623840,487.657532 565.659180,485.901917 
	C548.107666,478.990082 530.884583,472.235260 512.930664,465.193817 
	C513.162292,467.548920 513.244507,469.291748 513.518982,471.003754 
	C514.300964,475.881622 515.217163,480.738190 515.980103,485.618835 
	C518.193604,499.779175 520.312561,513.954407 522.554810,528.110168 
	C524.642517,541.289795 526.889832,554.444153 528.977600,567.623779 
	C531.219666,581.777649 533.387878,595.943481 535.531067,610.112671 
	C537.083496,620.376282 538.542786,630.654053 540.043640,640.925476 
	C526.982117,640.970642 513.920654,641.015808 500.394287,640.955933 
	C498.132416,629.280823 496.327911,617.712036 494.540375,606.140625 
	C492.349457,591.958252 490.209930,577.767761 487.979004,563.591675 
	C485.926239,550.548157 483.750031,537.524109 481.686310,524.482300 
	C479.417664,510.145233 477.252899,495.791748 474.974579,481.456238 
	C472.203400,464.019470 469.372833,446.592133 466.544434,429.164520 
	C465.064362,420.044861 463.494995,410.939453 462.067627,401.811707 
	C461.849823,400.418884 462.183868,398.939728 462.307983,396.672241 
	C494.302094,409.241882 525.705994,421.579620 557.651123,434.272278 
	C568.338684,438.748230 578.463074,442.924805 588.644775,446.956451 
	C591.688965,448.161804 594.893555,448.962006 598.351013,450.106873 
	C625.445740,460.833344 652.214172,471.400757 678.982544,481.968201 
z" data-index="5" style="opacity: 1;"></path>
<path fill="#FF6523" opacity="1.000000" stroke="none" d="
M598.024658,449.947845 
	C594.893555,448.962006 591.688965,448.161804 588.644775,446.956451 
	C578.463074,442.924805 568.338684,438.748230 558.013123,434.315918 
	C555.888245,421.861328 553.951294,409.716583 551.994690,397.575012 
	C549.802856,383.973419 547.567993,370.378754 545.399109,356.773529 
	C543.564819,345.266632 541.820740,333.745422 539.991699,322.237701 
	C539.091492,316.573883 538.030823,310.935150 537.170166,305.265717 
	C536.926819,303.662506 537.133057,301.990997 537.133057,299.683319 
	C577.450378,315.569244 617.288147,331.266205 657.487793,346.987823 
	C659.535706,356.388123 661.289246,365.752319 662.884766,375.143341 
	C664.014771,381.793945 664.930969,388.480865 665.536072,395.552979 
	C638.619629,385.448151 612.109680,374.941956 584.722229,364.087952 
	C585.909851,371.583557 586.938416,378.177185 588.001892,384.765228 
	C589.935852,396.746185 591.960632,408.712982 593.814575,420.706207 
	C595.318970,430.437805 596.628601,440.199493 598.024658,449.947845 
z" data-index="6" style="opacity: 1;"></path>
<path fill="#F2F2F2" opacity="1.000000" stroke="none" d="
M1388.697876,955.192322 
	C1404.939453,958.681335 1417.776489,967.332336 1426.810425,981.206055 
	C1438.005127,998.398132 1452.769287,1010.710938 1472.694580,1016.404968 
	C1485.555420,1020.080261 1498.464600,1019.673340 1511.569458,1017.545410 
	C1533.598633,1013.968567 1552.846069,1019.644165 1568.414429,1036.143799 
	C1569.541748,1037.338501 1570.429688,1038.758667 1571.539551,1040.355469 
	C1531.780640,1044.994263 1493.448120,1040.506226 1457.390137,1020.750488 
	C1451.286377,1016.845093 1445.424316,1013.200439 1439.834839,1009.177063 
	C1433.035400,1004.282959 1426.465698,999.069824 1419.295776,993.651367 
	C1408.805786,981.206848 1398.816772,969.105530 1388.885254,956.701294 
	C1388.861328,955.996277 1388.779541,955.594299 1388.697876,955.192322 
z" data-index="7"></path>
<path fill="#F4F4F4" opacity="1.000000" stroke="none" d="
M1648.927612,670.870117 
	C1648.381104,671.026123 1647.817749,670.850891 1647.032715,670.395874 
	C1647.511108,670.257019 1648.210815,670.397888 1648.927612,670.870117 
z" data-index="8"></path>



<path fill="#FF6523" opacity="1.000000" stroke="none" d="
M691.008911,1033.691162 
	C692.243347,1041.801758 693.215820,1049.619019 694.422729,1057.399902 
	C696.536682,1071.029419 698.833496,1084.630493 700.979797,1098.255005 
	C702.768433,1109.608398 704.397888,1120.986816 706.195312,1132.338745 
	C708.068909,1144.172119 710.067993,1155.985718 711.996216,1167.810547 
	C714.267700,1181.740356 716.556274,1195.667480 718.774109,1209.605957 
	C720.890259,1222.905884 722.886658,1236.225098 725.005798,1249.524536 
	C727.252258,1263.623413 729.660156,1277.696899 731.853149,1291.803833 
	C734.325684,1307.709106 736.524780,1323.657104 739.048706,1339.553955 
	C741.879700,1357.384399 745.023132,1375.165161 747.869751,1392.993286 
	C749.424988,1402.734131 750.636230,1412.529785 752.042603,1422.295044 
	C752.151794,1423.053345 752.576599,1423.766235 753.092834,1425.128662 
	C761.161377,1418.526245 768.902893,1412.200317 776.634644,1405.862549 
	C789.035278,1395.697388 801.449402,1385.548462 813.820435,1375.347290 
	C824.300232,1366.705444 834.705505,1357.973389 845.182922,1349.328613 
	C859.200256,1337.763184 873.266357,1326.256714 887.291199,1314.700439 
	C899.796814,1304.395996 912.266602,1294.048096 924.767395,1283.737793 
	C936.893433,1273.736694 949.044189,1263.765625 961.174133,1253.769409 
	C973.678711,1243.464478 986.163391,1233.135620 998.671082,1222.834717 
	C1010.920471,1212.746582 1023.198120,1202.692749 1035.444458,1192.600586 
	C1047.832642,1182.391602 1060.189575,1172.144653 1072.574829,1161.931763 
	C1084.818237,1151.836182 1097.081055,1141.764526 1109.332764,1131.679077 
	C1121.586914,1121.591309 1133.843262,1111.505981 1146.088745,1101.407593 
	C1158.470947,1091.196411 1170.836792,1080.965088 1183.217773,1070.752075 
	C1195.589478,1060.546509 1207.967041,1050.347900 1220.348999,1040.154663 
	C1234.263306,1028.700195 1248.188721,1017.259277 1262.103149,1005.804810 
	C1272.705688,997.076599 1283.290527,988.326599 1293.899414,979.606018 
	C1299.389771,975.092834 1304.915283,970.622437 1310.734863,965.979919 
	C1329.078857,962.130249 1347.038696,957.990234 1365.182983,954.952087 
	C1372.558716,953.716980 1380.335693,954.877563 1388.313965,955.070251 
	C1388.779541,955.594299 1388.861328,955.996277 1388.885254,956.701233 
	C1379.463745,964.590454 1370.072144,972.142822 1360.742554,979.770935 
	C1346.676147,991.272095 1332.636841,1002.806702 1318.616699,1014.364075 
	C1307.903931,1023.194946 1297.238892,1032.083618 1286.551758,1040.945679 
	C1274.601440,1050.855225 1262.682495,1060.803223 1250.690430,1070.661987 
	C1238.318115,1080.833252 1225.854492,1090.893555 1213.466675,1101.046021 
	C1199.028809,1112.878784 1184.615234,1124.741211 1170.218384,1136.623901 
	C1157.862183,1146.822266 1145.557861,1157.083496 1133.205444,1167.286255 
	C1121.099731,1177.285156 1108.965210,1187.249390 1096.837280,1197.221436 
	C1084.591064,1207.290649 1072.331421,1217.343506 1060.088501,1227.416870 
	C1047.463623,1237.804688 1034.844482,1248.199585 1022.236328,1258.607910 
	C1009.997742,1268.711060 997.803162,1278.867676 985.539856,1288.940552 
	C973.174500,1299.097290 960.709900,1309.133179 948.359497,1319.307983 
	C936.110168,1329.399536 923.983643,1339.640137 911.739624,1349.738281 
	C899.383484,1359.928955 886.922729,1369.992676 874.557007,1380.171875 
	C864.232971,1388.670776 853.988892,1397.266724 843.693359,1405.800293 
	C831.486938,1415.917603 819.275085,1426.028320 807.043823,1436.115601 
	C794.546570,1446.422241 782.038818,1456.716431 769.506348,1466.980347 
	C757.137817,1477.109985 744.726868,1487.187866 732.351135,1497.308838 
	C730.945435,1498.458374 729.648499,1499.740845 727.983826,1501.249146 
	C727.281860,1500.153198 726.337097,1499.311768 726.184692,1498.345459 
	C723.729065,1482.775757 721.443420,1467.179199 718.977051,1451.611206 
	C716.486938,1435.893066 713.793884,1420.207031 711.276550,1404.493042 
	C709.120789,1391.035645 707.131409,1377.551636 704.988770,1364.092163 
	C702.771729,1350.164673 700.387085,1336.263794 698.207825,1322.330566 
	C696.050537,1308.537720 694.140991,1294.705811 691.969543,1280.915283 
	C689.851257,1267.462158 687.469910,1254.050659 685.331177,1240.600708 
	C683.139282,1226.816162 681.110840,1213.005615 678.993164,1199.209229 
	C677.273560,1188.006104 675.566406,1176.800903 673.783020,1165.607910 
	C671.899414,1153.785522 669.924255,1141.977783 668.003418,1130.161377 
	C665.423401,1114.290161 662.804199,1098.424927 660.300781,1082.541504 
	C658.127502,1068.753296 656.131470,1054.937134 653.984070,1041.144775 
	C651.913208,1027.843994 649.743225,1014.558411 647.627197,1001.264526 
	C645.743347,989.429626 643.898682,977.588440 641.991699,965.757324 
	C639.458923,950.044556 636.830933,934.347046 634.339966,918.627747 
	C632.156738,904.850281 630.107544,891.051514 627.996216,877.262634 
	C626.305481,866.220886 624.678406,855.168762 622.898560,844.141357 
	C621.016296,832.478699 618.938538,820.847656 617.033508,809.188477 
	C614.652039,794.613220 612.354126,780.024170 610.043762,765.437378 
	C609.914734,764.622925 610.000610,763.774414 609.962769,762.518860 
	C610.832153,762.382690 611.817383,762.513916 612.604126,762.979980 
	C621.022095,767.966858 630.177917,769.658936 639.843506,769.384705 
	C642.628357,769.305603 645.426453,769.696960 648.610107,770.429077 
	C649.332275,772.760437 649.700256,774.529358 649.987488,776.311279 
	C652.229370,790.219421 654.492981,804.124329 656.675354,818.041870 
	C658.504028,829.703735 660.159790,841.392883 662.028015,853.048218 
	C663.524170,862.381958 665.224243,871.683044 666.833740,880.998596 
	C666.952515,917.065979 667.135620,953.133240 667.159424,989.200684 
	C667.169495,1004.363647 671.128784,1017.780029 683.172852,1027.864502 
	C685.582825,1029.882446 688.284973,1031.551514 691.008911,1033.691162 
z" data-index="10" style="opacity: 1;"></path>
<path fill="#3E3E3E" opacity="1.000000" stroke="none" d="
M178.186157,940.901489 
	C212.979691,952.032837 246.778412,949.444824 280.166840,936.557922 
	C283.546753,935.253418 284.535980,933.293518 284.473572,929.816956 
	C284.192566,914.158081 284.041321,898.494324 284.108185,882.833435 
	C284.125244,878.836548 282.696228,877.656738 278.862579,877.690063 
	C262.367981,877.833252 245.871445,877.772278 229.375702,877.741150 
	C219.772949,877.723022 217.286728,875.197693 217.254715,865.556946 
	C217.233139,859.058655 217.133362,852.557434 217.286285,846.062622 
	C217.456406,838.838013 220.280502,836.029907 227.383102,836.020264 
	C259.541534,835.976440 291.700073,835.974609 323.858490,836.022888 
	C330.758789,836.033203 333.756592,838.837219 333.852325,845.655640 
	C334.413696,885.638977 334.842621,925.624207 335.394592,965.607666 
	C335.455963,970.054199 333.609283,973.157410 330.121674,975.708740 
	C317.993439,984.580811 304.199280,989.796997 290.070984,994.377686 
	C245.104507,1008.956726 200.064774,1010.167786 155.375656,993.865784 
	C107.077423,976.247253 73.344009,943.745483 60.802986,893.066406 
	C49.277550,846.491333 53.729515,800.600342 75.471428,757.453491 
	C96.621948,715.480103 131.403259,689.897888 176.929413,679.602356 
	C219.142059,670.056274 260.961060,673.380615 301.960663,686.993103 
	C306.822723,688.607422 311.459320,690.977051 316.062103,693.273804 
	C320.329895,695.403442 321.905487,698.788452 320.391632,703.632263 
	C316.723328,715.369263 313.449432,727.231873 309.652710,738.925720 
	C306.893219,747.424927 303.831604,748.779236 295.326111,745.406555 
	C274.536499,737.162964 253.032455,732.493225 230.661118,732.228333 
	C208.213684,731.962524 186.465744,735.375244 166.648911,746.628479 
	C134.563232,764.848633 119.139519,793.465027 116.045387,829.439453 
	C114.682060,845.290344 115.304443,861.081909 119.479721,876.532166 
	C127.948647,907.870728 147.707123,929.052063 178.186157,940.901489 
z" data-index="11" style="opacity: 1;"></path>
<path fill="#3E3E3E" opacity="1.000000" stroke="none" d="
M1268.240723,682.708618 
	C1285.255615,686.188232 1300.959961,691.972534 1315.399658,700.873718 
	C1341.109619,716.722229 1356.344238,739.500793 1359.405273,769.728088 
	C1362.748413,802.741211 1355.383301,832.824341 1331.910645,857.276855 
	C1314.404785,875.513367 1292.063843,885.519409 1267.463501,889.860901 
	C1253.594116,892.308594 1239.413818,893.512329 1225.325684,894.073364 
	C1207.691284,894.775574 1190.007568,894.233521 1172.345215,894.247192 
	C1166.074585,894.252014 1166.045776,894.332275 1165.995361,900.752808 
	C1165.760376,930.743652 1165.521484,960.734497 1165.259155,990.725037 
	C1165.177979,1000.014465 1163.037231,1002.105042 1153.695312,1002.119019 
	C1141.698242,1002.137024 1129.701050,1002.138794 1117.703979,1002.118713 
	C1108.772339,1002.103699 1106.083374,999.477417 1106.214233,990.462952 
	C1106.767700,952.313354 1107.906372,914.164673 1107.884155,876.016174 
	C1107.848389,814.702393 1107.063721,753.388977 1106.597778,692.075439 
	C1106.585083,690.409363 1106.527100,688.739746 1106.609741,687.077698 
	C1106.942627,680.383057 1109.450317,677.725281 1116.251587,677.732971 
	C1155.906006,677.777771 1195.565552,677.631958 1235.211670,678.271851 
	C1246.104736,678.447571 1256.958008,681.095215 1268.240723,682.708618 
M1262.636108,738.849976 
	C1254.685425,737.186218 1246.773071,734.340637 1238.776855,734.080872 
	C1214.985962,733.308167 1191.162109,733.548767 1167.350952,733.425476 
	C1166.932129,733.423279 1166.511108,733.822144 1166.343750,733.906555 
	C1166.343750,768.698059 1166.343750,803.270081 1166.343750,837.759399 
	C1190.776367,837.759399 1214.760010,838.403625 1238.688110,837.529846 
	C1254.294067,836.959961 1269.196411,832.144043 1282.097534,822.851501 
	C1307.256836,804.729614 1310.013672,771.940125 1284.563110,750.956604 
	C1278.414062,745.886780 1270.500244,742.957275 1262.636108,738.849976 
z" data-index="12" style="opacity: 1;"></path>
<path fill="#3E3E3E" opacity="1.000000" stroke="none" d="
M387.980347,842.000000 
	C387.560272,792.007324 387.137634,742.514587 386.723694,693.021851 
	C386.704193,690.689819 386.642609,688.348511 386.808289,686.026367 
	C387.190247,680.672546 389.650482,678.198730 394.914154,677.778198 
	C396.571747,677.645813 398.244537,677.677917 399.910370,677.677795 
	C458.906097,677.673401 517.901855,677.672058 576.897583,677.676025 
	C587.973999,677.676758 589.989563,679.659119 589.930054,690.772522 
	C589.873901,701.269470 589.932251,711.775940 589.490234,722.259277 
	C589.117065,731.110168 586.518738,733.310974 577.696899,733.315613 
	C536.033264,733.337524 494.369598,733.323914 452.705933,733.328125 
	C445.731964,733.328796 445.725616,733.340698 445.742706,740.134277 
	C445.798950,762.465576 445.853271,784.796814 445.923889,807.128113 
	C445.945007,813.804321 445.968414,813.818115 452.524506,813.819031 
	C488.188599,813.823975 523.852661,813.816772 559.516785,813.824463 
	C570.061646,813.826782 572.025391,815.800720 572.033630,826.331726 
	C572.040527,835.164429 572.053040,843.997192 572.029968,852.829834 
	C572.005981,862.039673 569.734192,864.401611 560.534973,864.411560 
	C524.870850,864.450195 489.206787,864.426514 453.542694,864.428650 
	C445.942444,864.429138 445.938934,864.434143 445.918396,872.082825 
	C445.857605,894.747437 445.963318,917.414490 445.618225,940.074707 
	C445.538727,945.297974 447.225464,946.450378 452.153168,946.430115 
	C495.149323,946.252991 538.146545,946.324158 581.143433,946.330383 
	C592.777100,946.332031 594.758240,948.228699 595.088379,959.917175 
	C595.370605,969.910645 595.621582,979.906555 595.722473,989.903076 
	C595.821594,999.720154 593.407288,1002.119568 583.801025,1002.120605 
	C521.972168,1002.127380 460.143280,1002.127014 398.314423,1002.121277 
	C388.661133,1002.120361 386.208862,999.710632 386.313416,989.969299 
	C386.841095,940.812561 387.419128,891.656372 387.980347,842.000000 
z" data-index="13" style="opacity: 1;"></path>


<path fill="#FF6523" opacity="1.000000" stroke="none" d="
M1415.790283,691.252319 
	C1388.297485,680.604431 1361.122070,669.801575 1333.919189,659.068176 
	C1306.254028,648.152344 1278.565186,637.296021 1250.880615,626.429565 
	C1212.198853,611.246826 1173.497070,596.115417 1134.830688,580.893860 
	C1099.809570,567.107422 1064.832764,553.208130 1029.820923,539.397949 
	C995.585693,525.894043 961.323730,512.457642 927.086365,498.958984 
	C888.739990,483.840210 850.414490,468.668671 812.068115,453.549988 
	C776.289001,439.443512 740.494324,425.376343 704.352417,411.228333 
	C702.654846,404.248230 701.146729,397.358612 700.008850,390.408356 
	C698.511292,381.260956 697.304871,372.065948 696.057678,362.456726 
	C710.639099,367.781677 725.134766,373.544769 739.633484,379.300201 
	C766.063965,389.791962 792.475037,400.333099 818.933350,410.754364 
	C850.744446,423.283997 882.601501,435.696838 914.429443,448.183960 
	C959.408630,465.830780 1004.391785,483.467651 1049.349976,501.168060 
	C1089.093018,516.815308 1128.790039,532.579529 1168.533203,548.226746 
	C1213.502441,565.931580 1258.513794,583.529785 1303.482056,601.236877 
	C1346.460083,618.160156 1389.408447,635.158386 1432.364258,652.138000 
	C1439.687378,655.032715 1446.981812,657.999939 1454.644775,661.048767 
	C1452.921631,662.721741 1450.822876,664.253723 1448.767700,665.841980 
	C1437.870972,674.262817 1426.985107,682.697693 1415.790283,691.252319 
z" data-index="15" style="opacity: 1;"></path>
<path fill="#3E3E3E" opacity="1.000000" stroke="none" d="
M923.492676,1004.646729 
	C911.717041,1002.737427 900.391907,1000.925964 889.082886,999.018494 
	C887.131165,998.689270 885.228027,998.013611 883.336792,997.393250 
	C872.425903,993.814392 871.433594,992.248230 874.032532,981.149414 
	C876.154358,972.088135 878.410217,963.048218 880.966125,954.101501 
	C883.137146,946.501770 885.881714,945.309387 893.540283,946.905334 
	C906.216858,949.546875 918.879333,952.402039 931.678894,954.266724 
	C944.182190,956.088257 956.631348,954.261414 968.656677,950.500488 
	C993.493958,942.732422 1003.935608,922.525879 997.489258,895.628540 
	C993.616516,879.469604 982.668091,868.968079 969.089172,861.214722 
	C954.382812,852.817627 938.933594,845.731445 923.960449,837.786804 
	C917.804993,834.520691 911.803040,830.843689 906.153992,826.767639 
	C888.545959,814.062683 877.605713,797.150818 875.528442,775.238892 
	C873.236755,751.065430 875.569824,727.925110 892.373169,708.524902 
	C904.322327,694.729065 919.587891,686.315857 936.975769,681.564087 
	C970.558167,672.386597 1003.822632,674.309326 1036.767578,684.855835 
	C1038.964233,685.559082 1041.576294,686.241516 1042.978027,687.830811 
	C1044.767822,689.860107 1046.902466,693.055725 1046.488770,695.307922 
	C1044.509766,706.083557 1042.021729,716.793213 1039.118774,727.362671 
	C1036.944824,735.277954 1034.019165,736.305176 1026.106201,734.222046 
	C1017.124695,731.857544 1008.109558,729.501587 998.981506,727.843750 
	C987.981750,725.846130 977.044678,727.429626 966.392029,730.461914 
	C940.171936,737.925415 930.997009,766.315369 947.224731,789.851685 
	C953.873352,799.494690 962.935425,806.490967 973.112305,812.141907 
	C989.096497,821.017456 1005.326294,829.495605 1020.929321,839.000305 
	C1038.181030,849.509338 1051.451416,863.927185 1057.158569,883.784363 
	C1063.593872,906.174988 1063.049927,928.766052 1054.442871,950.426208 
	C1044.810913,974.665588 1025.348022,988.676453 1001.380188,996.924255 
	C976.215454,1005.583862 950.251038,1007.001404 923.492676,1004.646729 
z" data-index="16" style="opacity: 1;"></path>
<path fill="#3D3D3D" opacity="1.000000" stroke="none" d="
M703.817566,911.000000 
	C703.848938,853.683899 703.881531,796.867798 703.902588,740.051697 
	C703.905029,733.456421 703.770813,733.331665 697.198975,733.327881 
	C677.704773,733.316650 658.210510,733.349854 638.716370,733.309204 
	C630.109314,733.291260 627.273315,730.650330 627.085876,722.069946 
	C626.842224,710.911926 626.801941,699.747681 626.822083,688.586365 
	C626.837402,680.099915 629.299683,677.702698 637.950623,677.692444 
	C671.107422,677.653015 704.264221,677.676025 737.421021,677.675903 
	C768.245178,677.675781 799.069336,677.666077 829.893494,677.681580 
	C839.809326,677.686523 842.028625,679.840759 842.028870,689.612305 
	C842.029175,700.274475 842.095581,710.942078 841.785034,721.597168 
	C841.514587,730.876343 838.790588,733.303711 829.550964,733.315552 
	C809.223694,733.341614 788.896362,733.315735 768.569092,733.329163 
	C762.308472,733.333313 762.100281,733.534363 762.105286,739.757568 
	C762.171875,822.065979 762.249451,904.374451 762.318176,986.682861 
	C762.320251,989.180969 762.398254,991.690735 762.193054,994.174683 
	C761.775757,999.225281 759.264038,1001.956177 754.274841,1002.012207 
	C739.948486,1002.173401 725.618225,1002.141968 711.291138,1002.009338 
	C706.860596,1001.968262 704.217590,999.391418 703.657593,994.946716 
	C703.408752,992.971985 703.305176,990.964844 703.316528,988.973511 
	C703.463867,963.148865 703.643677,937.324463 703.817566,911.000000 
z" data-index="17" style="opacity: 1;"></path>
<path fill="#A97CD1" opacity="1.000000" stroke="none" d="
M797.579834,1004.172974 
	C799.361816,1013.896423 800.834106,1023.847046 802.374573,1033.786987 
	C804.897949,1050.068848 807.425781,1066.350220 810.025391,1082.619995 
	C812.833435,1100.194336 815.771667,1117.748047 818.568604,1135.324219 
	C821.106567,1151.272583 823.507996,1167.242676 826.014221,1183.196167 
	C827.489746,1192.588623 829.052063,1201.967407 830.703186,1212.140259 
	C835.904785,1207.890015 840.567810,1204.088135 845.221924,1200.275391 
	C859.693054,1188.420532 874.195801,1176.603882 888.620300,1164.692505 
	C902.921082,1152.883423 917.106201,1140.934448 931.406799,1129.125244 
	C947.236633,1116.053345 963.153870,1103.087280 979.006775,1090.043213 
	C991.408508,1079.838867 1003.762024,1069.576294 1016.152039,1059.357788 
	C1028.413208,1049.245605 1040.700928,1039.165771 1052.961304,1029.052856 
	C1059.598999,1023.577820 1066.203979,1018.063293 1072.983398,1012.259399 
	C1074.633789,1014.089661 1076.205688,1016.175720 1077.601685,1018.373352 
	C1083.995483,1028.438843 1093.524536,1034.004883 1104.822876,1037.653076 
	C1084.263306,1055.200073 1063.562378,1072.512329 1042.732666,1089.668213 
	C1021.134888,1107.456543 999.349609,1125.017334 977.762024,1142.817871 
	C955.654175,1161.047241 933.747864,1179.520996 911.639893,1197.750244 
	C890.051453,1215.551270 868.281738,1233.132446 846.665466,1250.899902 
	C834.252747,1261.102539 821.994385,1271.493164 809.637634,1281.764160 
	C808.789612,1282.468994 807.699158,1282.881958 806.200806,1283.722900 
	C803.747314,1267.998291 801.392456,1252.748535 798.983521,1237.507324 
	C796.229614,1220.083740 793.410095,1202.670410 790.651489,1185.247437 
	C788.074524,1168.971436 785.562622,1152.685059 782.980347,1136.409912 
	C780.216125,1118.988037 777.378906,1101.577637 774.619019,1084.155151 
	C772.376221,1069.996460 770.209167,1055.825806 767.980835,1041.664795 
	C767.777588,1040.373413 767.372131,1039.113892 767.003357,1037.435547 
	C772.922546,1033.347900 779.312500,1030.184692 784.770447,1025.848633 
	C791.543701,1020.467529 794.866028,1012.573120 797.579834,1004.172974 
z" data-index="18" style="opacity: 1;"></path>
<path fill="#799CAA" opacity="1.000000" stroke="none" d="
M717.068298,497.368652 
	C750.403748,509.998718 783.727600,523.000488 817.005188,536.119629 
	C847.980896,548.331177 878.887268,560.718811 909.860718,572.936096 
	C946.377136,587.339722 982.934631,601.639038 1019.471069,615.991699 
	C1043.670776,625.498047 1067.865967,635.015869 1092.055298,644.548401 
	C1092.659302,644.786377 1093.172119,645.255310 1093.890259,645.951050 
	C1085.874878,651.578674 1078.805054,657.936218 1075.002686,666.201538 
	C1067.565796,661.540344 1060.719971,656.216492 1053.053955,652.661072 
	C1037.384521,645.393738 1020.445557,642.321777 1003.340942,641.174011 
	C987.946899,640.140930 972.468994,640.358154 956.351074,639.766846 
	C917.452881,624.508911 879.216370,609.546875 841.014709,594.496460 
	C802.664246,579.387512 764.348511,564.190247 726.017578,549.031738 
	C724.737183,543.317139 723.197937,537.645996 722.231262,531.878784 
	C720.331360,520.544617 718.749817,509.157013 717.068298,497.368652 
z" data-index="19" style="opacity: 1;"></path>



<path fill="#4C6971" opacity="1.000000" stroke="none" d="
M340.016205,760.922607 
	C343.299713,752.264404 346.508484,743.974670 349.717224,735.684998 
	C349.945862,735.697266 350.174469,735.709534 350.403076,735.721802 
	C350.403076,759.254944 350.403076,782.788147 350.403076,806.122559 
	C345.883850,804.480469 341.127106,802.294312 336.134583,801.068176 
	C331.249268,799.868347 326.126770,799.112610 321.103027,799.083740 
	C290.610931,798.908142 260.115845,798.817566 229.624741,799.066040 
	C212.529968,799.205322 197.682571,804.732361 187.857437,819.723511 
	C183.398788,826.526428 181.122818,834.200134 181.021515,842.383972 
	C180.916336,850.880737 180.976105,859.379883 181.002609,867.877930 
	C181.057983,885.628906 187.693115,899.686096 203.805069,908.421753 
	C204.188858,908.629822 204.388901,909.176819 205.076324,910.112427 
	C182.840622,906.222778 165.593948,895.960022 157.598557,874.793823 
	C148.736832,851.333923 149.467728,827.499451 159.968674,804.468994 
	C168.717270,785.281738 185.024765,775.252441 204.766312,771.297974 
	C215.975082,769.052734 227.809723,768.665955 239.269547,769.253906 
	C254.310669,770.025574 268.780792,774.264465 282.877716,779.874695 
	C300.383636,786.841614 320.698181,784.569153 334.195892,769.239868 
	C336.346436,766.797546 338.037811,763.950928 340.016205,760.922607 
z" data-index="21" style="opacity: 1; visibility: hidden;"></path>
<path fill="#3E3E3E" opacity="1.000000" stroke="none" d="
M1516.706055,677.269287 
	C1510.309082,692.456238 1504.066895,707.860291 1496.494507,722.580017 
	C1492.847290,729.669617 1486.826294,735.579773 1481.650024,741.833374 
	C1464.080688,763.058472 1446.423706,784.210999 1428.770752,805.366638 
	C1416.645752,819.897705 1404.472046,834.388062 1392.049561,849.035278 
	C1389.962646,822.475647 1394.613281,796.834778 1405.007568,772.292297 
	C1421.550415,733.231750 1448.170898,703.527649 1487.413330,686.299805 
	C1496.606079,682.264038 1506.657593,680.184509 1516.706055,677.269287 
z" data-index="22"></path>
<path fill="#FF6523" opacity="1.000000" stroke="none" d="
M591.126709,642.237549 
	C589.594910,634.385986 588.251587,626.827576 587.012878,619.252197 
	C584.742126,605.365295 582.490417,591.475037 580.310547,577.573669 
	C578.154602,563.824585 576.134644,550.054260 573.984741,536.304199 
	C572.189636,524.822998 570.294250,513.357483 568.440491,501.885498 
	C567.632202,496.882812 566.817139,491.881165 565.996338,486.468994 
	C570.623840,487.657532 575.328796,489.083344 579.881836,490.891663 
	C588.739929,494.409760 597.512878,498.142303 606.636658,501.949310 
	C608.418213,512.508423 609.789673,522.918701 611.373352,533.296631 
	C613.498657,547.224060 615.807434,561.123352 618.001343,575.040466 
	C620.095154,588.323364 622.130188,601.615540 624.214539,614.899963 
	C625.561707,623.486084 626.951233,632.065613 628.651062,640.896851 
	C622.442200,644.008911 615.929138,646.932678 609.333984,649.657959 
	C608.519287,649.994507 607.201111,649.429138 606.229309,649.015869 
	C601.253296,646.899475 596.314331,644.696045 591.126709,642.237549 
z" data-index="23" style="opacity: 1;"></path>

<path fill="#4D6971" opacity="1.000000" stroke="none" d="
M666.902954,880.533936 
	C665.224243,871.683044 663.524170,862.381958 662.028015,853.048218 
	C660.159790,841.392883 658.504028,829.703735 656.675354,818.041870 
	C654.492981,804.124329 652.229370,790.219421 649.987488,776.311279 
	C649.700256,774.529358 649.332275,772.760437 649.000610,770.576050 
	C654.785645,770.166626 660.571899,770.166626 666.972168,770.166626 
	C666.972168,806.895996 666.972168,843.482605 666.902954,880.533936 
z" data-index="24"></path>

<path fill="#AB80D1" opacity="1.000000" stroke="none" d="
M1234.616943,930.756836 
	C1224.156494,939.950073 1213.419678,948.843933 1202.392456,957.900635 
	C1202.102173,948.972473 1202.102173,939.881470 1202.102173,930.457520 
	C1213.168335,930.457520 1223.754395,930.457520 1234.616943,930.756836 
z" data-index="26" style="opacity: 1;"></path>
<path fill="#84A4B1" opacity="1.000000" stroke="none" d="
M560.675415,769.971802 
	C561.365540,772.144775 561.663269,774.162415 561.982300,776.565918 
	C561.431763,777.241211 560.858887,777.784912 560.288208,777.782593 
	C547.727112,777.731018 535.166260,777.618896 522.162903,776.873962 
	C521.480286,774.169434 521.240173,772.109314 521.000061,770.049194 
	C522.404053,769.765808 523.811035,769.223816 525.211548,769.239807 
	C536.902771,769.374023 548.592712,769.610718 560.675415,769.971802 
z" data-index="27"></path>


<path fill="#3E3E3E" opacity="1.000000" stroke="none" d="
M1799.000000,677.672852 
	C1844.324097,677.673035 1889.148193,677.668274 1933.972290,677.677307 
	C1944.469360,677.679443 1946.727783,679.793518 1946.679443,690.155273 
	C1946.628052,701.145508 1946.432007,712.138550 1946.067627,723.122620 
	C1945.817749,730.655273 1943.070557,733.262695 1935.535400,733.297180 
	C1917.372803,733.380188 1899.209717,733.326355 1881.046753,733.326965 
	C1866.784912,733.327515 1866.776001,733.327087 1866.786133,747.332092 
	C1866.844360,827.813049 1866.907959,908.293945 1866.965454,988.774902 
	C1866.966675,990.607239 1867.057251,992.454163 1866.867310,994.269165 
	C1866.351562,999.194397 1863.711182,1001.958313 1858.765625,1002.013977 
	C1844.604126,1002.173462 1830.438354,1002.196533 1816.277100,1002.033691 
	C1810.423584,1001.966492 1807.943115,998.807556 1807.960449,991.979187 
	C1808.049683,956.820435 1808.270752,921.661926 1808.310791,886.503235 
	C1808.366577,837.515442 1808.246338,788.527344 1808.379395,739.539917 
	C1808.392334,734.787170 1807.036865,733.171814 1802.171631,733.230896 
	C1782.845215,733.465454 1763.514160,733.339233 1744.184814,733.322021 
	C1734.420410,733.313293 1732.167847,731.532166 1731.756714,721.987854 
	C1731.262329,710.512146 1731.181763,699.010864 1731.235962,687.522156 
	C1731.269409,680.409790 1734.201416,677.736267 1741.510864,677.705994 
	C1760.506958,677.627258 1779.503540,677.675354 1799.000000,677.672852 
z" data-index="29" style="opacity: 1;"></path>
<path fill="#3D3D3D" opacity="1.000000" stroke="none" d="
M1628.343628,979.911255 
	C1630.395996,958.194153 1632.678955,936.289490 1635.082275,914.398010 
	C1637.612427,891.351379 1640.331299,868.325317 1642.828247,845.275146 
	C1644.683594,828.147583 1645.912109,810.940369 1648.259766,793.884216 
	C1649.120483,787.630615 1652.295654,781.670898 1654.593262,775.645081 
	C1658.844727,764.494751 1663.227661,753.394592 1667.900513,742.109375 
	C1677.208496,753.273071 1683.207764,766.206665 1688.258545,779.586792 
	C1714.088013,848.011536 1694.209106,925.781799 1639.277588,971.472107 
	C1635.825928,974.343079 1632.181763,976.982422 1628.343628,979.911255 
z" data-index="30" style="opacity: 1;"></path>
<path fill="#FD6423" opacity="1.000000" stroke="none" d="
M1389.717529,878.720215 
	C1427.727783,833.172791 1465.516602,787.904114 1503.237305,742.578796 
	C1505.101807,740.338440 1506.559448,739.694397 1509.480347,740.943726 
	C1548.924683,757.814758 1588.427124,774.550415 1627.947754,791.242249 
	C1630.318115,792.243347 1631.162354,793.437744 1630.869141,796.069946 
	C1626.612183,834.288513 1622.411255,872.513489 1618.283203,910.746155 
	C1614.440918,946.331543 1610.715210,981.929565 1606.909302,1017.518921 
	C1605.569458,1030.047974 1604.143677,1042.567993 1602.610596,1056.415649 
	C1598.331299,1049.616455 1594.615112,1043.830566 1591.016357,1037.972534 
	C1578.573608,1017.718628 1560.756226,1005.157410 1537.431519,1000.508911 
	C1526.989746,998.427856 1516.609985,999.276733 1506.164307,1000.982910 
	C1478.904297,1005.435425 1457.395752,996.048401 1442.086914,973.101318 
	C1430.900879,956.333984 1415.929443,944.927124 1396.552002,939.403931 
	C1380.851929,934.928955 1365.236572,936.507446 1349.671753,940.327087 
	C1345.650879,941.313782 1341.579102,942.094177 1336.794556,942.200745 
	C1354.357178,921.129700 1371.919800,900.058655 1389.717529,878.720215 
M1592.938232,864.471375 
	C1595.268921,853.238892 1597.656006,842.017700 1599.908813,830.769653 
	C1601.246826,824.089417 1598.895386,819.791931 1593.569580,818.712769 
	C1588.284058,817.641663 1584.420898,820.861267 1583.078003,827.404846 
	C1580.871826,838.154846 1578.638184,848.899170 1576.422241,859.647156 
	C1570.479004,888.473877 1564.518921,917.297119 1558.611694,946.131226 
	C1557.245483,952.799866 1561.337158,957.724060 1567.626099,957.184570 
	C1572.297729,956.783875 1574.470581,953.985168 1575.928467,946.901428 
	C1581.526733,919.698975 1587.174683,892.506653 1592.938232,864.471375 
M1475.874023,854.385376 
	C1488.453247,835.968445 1501.037354,817.554932 1513.600952,799.127380 
	C1514.535278,797.757019 1515.477173,796.354797 1516.146362,794.847900 
	C1517.962402,790.758484 1516.743042,787.327515 1513.355591,784.697388 
	C1510.003052,782.094238 1505.444702,782.459961 1502.438721,785.506104 
	C1501.281982,786.678162 1500.384155,788.120056 1499.446777,789.492493 
	C1477.105957,822.202393 1454.771362,854.916382 1432.448242,887.638306 
	C1428.661499,893.189087 1429.048340,898.215393 1433.422241,901.234863 
	C1437.956177,904.364807 1442.587646,903.044067 1446.434326,897.429199 
	C1456.123535,883.286377 1465.780518,869.121521 1475.874023,854.385376 
M1519.283813,903.836304 
	C1532.079590,873.703979 1544.903198,843.583313 1557.645020,813.428162 
	C1559.896729,808.099182 1557.996460,803.199768 1553.317383,801.366638 
	C1548.707275,799.560425 1544.202148,801.525757 1542.000366,806.694275 
	C1526.304688,843.539978 1510.659790,880.407410 1495.057739,917.292786 
	C1492.788086,922.658386 1494.569092,927.432861 1499.245605,929.418884 
	C1503.869873,931.382751 1508.466309,929.241699 1510.838257,923.833862 
	C1513.642090,917.441650 1516.304199,910.987305 1519.283813,903.836304 
z" data-index="31" style="opacity: 1;"></path>
<path fill="#FD6423" opacity="1.000000" stroke="none" d="
M1532.009644,687.056763 
	C1550.081787,663.065430 1578.659180,654.368408 1607.000000,663.987671 
	C1633.820557,673.091003 1652.474854,698.910034 1651.733765,726.746948 
	C1651.563965,733.127380 1650.286621,739.714478 1648.206787,745.754639 
	C1644.750244,755.792847 1640.231445,765.465393 1635.907715,775.900635 
	C1595.505737,758.767822 1555.339966,741.735168 1514.133789,724.261292 
	C1520.109131,711.794189 1525.964233,699.578064 1532.009644,687.056763 
M1635.744385,714.981934 
	C1631.675537,699.061157 1622.311157,687.408447 1607.565430,680.136292 
	C1601.885864,677.335327 1597.001587,678.453552 1594.612305,682.966309 
	C1592.093628,687.723450 1594.112427,692.362671 1600.018921,695.390930 
	C1616.670898,703.928406 1623.365967,719.939514 1617.673950,737.612854 
	C1615.847290,743.284180 1617.598389,747.972534 1622.183716,749.687561 
	C1627.100342,751.526428 1631.650024,749.072021 1633.796021,743.263306 
	C1637.098267,734.325134 1637.911987,725.167969 1635.744385,714.981934 
z" data-index="32" style="opacity: 1;"></path>
<path fill="#F4F4F4" opacity="1.000000" stroke="none" d="
M1263.017090,738.946777 
	C1270.500244,742.957275 1278.414062,745.886780 1284.563110,750.956604 
	C1310.013672,771.940125 1307.256836,804.729614 1282.097534,822.851501 
	C1269.196411,832.144043 1254.294067,836.959961 1238.688110,837.529846 
	C1214.760010,838.403625 1190.776367,837.759399 1166.343750,837.759399 
	C1166.343750,803.270081 1166.343750,768.698059 1166.343750,733.906555 
	C1166.511108,733.822144 1166.932129,733.423279 1167.350952,733.425476 
	C1191.162109,733.548767 1214.985962,733.308167 1238.776855,734.080872 
	C1246.773071,734.340637 1254.685425,737.186218 1263.017090,738.946777 
M1261.455322,778.976807 
	C1243.402100,766.586548 1223.026367,770.646484 1203.244873,770.044678 
	C1203.244873,781.013245 1203.244873,791.271362 1203.244873,801.994690 
	C1212.423584,801.994690 1221.409790,802.559570 1230.293091,801.846252 
	C1240.533203,801.023987 1250.725708,799.345398 1259.771729,793.688477 
	C1266.095337,789.734070 1267.476074,785.185791 1261.455322,778.976807 
z" data-index="33" style="opacity: 1;"></path>
<path fill="#030100" opacity="1.000000" stroke="none" d="
M1592.871216,864.890991 
	C1587.174683,892.506653 1581.526733,919.698975 1575.928467,946.901428 
	C1574.470581,953.985168 1572.297729,956.783875 1567.626099,957.184570 
	C1561.337158,957.724060 1557.245483,952.799866 1558.611694,946.131226 
	C1564.518921,917.297119 1570.479004,888.473877 1576.422241,859.647156 
	C1578.638184,848.899170 1580.871826,838.154846 1583.078003,827.404846 
	C1584.420898,820.861267 1588.284058,817.641663 1593.569580,818.712769 
	C1598.895386,819.791931 1601.246826,824.089417 1599.908813,830.769653 
	C1597.656006,842.017700 1595.268921,853.238892 1592.871216,864.890991 
z" data-index="34"></path>
<path fill="#030100" opacity="1.000000" stroke="none" d="
M1475.662231,854.675415 
	C1465.780518,869.121521 1456.123535,883.286377 1446.434326,897.429199 
	C1442.587646,903.044067 1437.956177,904.364807 1433.422241,901.234863 
	C1429.048340,898.215393 1428.661499,893.189087 1432.448242,887.638306 
	C1454.771362,854.916382 1477.105957,822.202393 1499.446777,789.492493 
	C1500.384155,788.120056 1501.281982,786.678162 1502.438721,785.506104 
	C1505.444702,782.459961 1510.003052,782.094238 1513.355591,784.697388 
	C1516.743042,787.327515 1517.962402,790.758484 1516.146362,794.847900 
	C1515.477173,796.354797 1514.535278,797.757019 1513.600952,799.127380 
	C1501.037354,817.554932 1488.453247,835.968445 1475.662231,854.675415 
z" data-index="35"></path>
<path fill="#030100" opacity="1.000000" stroke="none" d="
M1519.155762,904.198120 
	C1516.304199,910.987305 1513.642090,917.441650 1510.838257,923.833862 
	C1508.466309,929.241699 1503.869873,931.382751 1499.245605,929.418884 
	C1494.569092,927.432861 1492.788086,922.658386 1495.057739,917.292786 
	C1510.659790,880.407410 1526.304688,843.539978 1542.000366,806.694275 
	C1544.202148,801.525757 1548.707275,799.560425 1553.317383,801.366638 
	C1557.996460,803.199768 1559.896729,808.099182 1557.645020,813.428162 
	C1544.903198,843.583313 1532.079590,873.703979 1519.155762,904.198120 
z" data-index="36"></path>
<path fill="#030100" opacity="1.000000" stroke="none" d="
M1635.831665,715.394531 
	C1637.911987,725.167969 1637.098267,734.325134 1633.796021,743.263306 
	C1631.650024,749.072021 1627.100342,751.526428 1622.183716,749.687561 
	C1617.598389,747.972534 1615.847290,743.284180 1617.673950,737.612854 
	C1623.365967,719.939514 1616.670898,703.928406 1600.018921,695.390930 
	C1594.112427,692.362671 1592.093628,687.723450 1594.612305,682.966309 
	C1597.001587,678.453552 1601.885864,677.335327 1607.565430,680.136292 
	C1622.311157,687.408447 1631.675537,699.061157 1635.831665,715.394531 
z" data-index="37"></path>

</svg>